<svg width="470" height="144" viewBox="0 0 470 144" fill="none" xmlns="http://www.w3.org/2000/svg">
<mask id="mask0" mask-type="alpha" maskUnits="userSpaceOnUse" x="0" y="0" width="470" height="144">
<rect width="470" height="144" fill="url(#paint0_linear)"/>
</mask>
<g mask="url(#mask0)">
<g filter="url(#filter0_d)">
<path d="M95.0001 40C73.0001 27 105.5 -12.5 106 -15.5C142.167 -18.6667 221.5 -24.7 249.5 -23.5C284.5 -22 280.5 -8 286 14.5C291.5 37 271.5 28 258 49.5C244.5 71 209.5 56 203.5 56C197.5 56 117 53 95.0001 40Z" fill="url(#paint1_linear)"/>
</g>
<path d="M29 83.5C45.8333 68.6667 90.9 41.6 136.5 52C193.5 65 247.5 54.5 281.5 38L282.187 37.6667C316.118 21.1953 361.889 -1.02323 419.5 69.5C477.5 140.5 204 150.5 136.5 131.5C82.5 116.3 42.3333 93.1667 29 83.5Z" fill="#827F7F"/>
<g filter="url(#filter1_d)">
<path d="M45.5 -15.5C102.3 -16.3 154.5 22.5 173.5 42C145.667 57.3333 88.4 90.7 82 101.5C74 115 6.00003 96 -37 83.5C-80 71 -42.5 56.5 -37 12C-31.5 -32.5 -25.5 -14.5 45.5 -15.5Z" fill="url(#paint2_linear)"/>
</g>
<g filter="url(#filter2_d)">
<path d="M481.5 13C486.3 31.8 452.833 59.1667 435.5 70.5C436.333 83.1667 437.1 109.6 433.5 114C429 119.5 87.4999 135 60.4999 132.5C33.4999 130 6.49994 125 39.4999 75C72.4999 25 107 33 167 39C227 45 231.5 20.5 265.5 3C299.5 -14.5 326 -21.5 386.5 -23.5C447 -25.5 475.5 -10.5 481.5 13Z" fill="url(#paint3_linear)"/>
</g>
<g filter="url(#filter3_d)">
<path d="M230 150.5C221.5 127.833 191.5 81.6 139.5 78C74.5 73.5 -7.99998 88 -22 36C-36 -16 -80.5 120.5 -65 142C-49.5 163.5 23 171 78 171.5C122 171.9 197.667 157.667 230 150.5Z" fill="url(#paint4_linear)"/>
</g>
<g filter="url(#filter4_d)">
<path d="M34.5 159.5C36.5 155.5 2.00003 122.5 57.5 110C113 97.5 134 125 228 102.5C322 80 302 56.5 381.5 54.5C461 52.5 445 -11 487.5 -17.5C530 -24 501 156 499 159.5C497 163 121.5 189 34.5 159.5Z" fill="url(#paint5_linear)"/>
</g>
</g>
<defs>
<filter id="filter0_d" x="62.3667" y="-43.6556" width="249.568" height="134.746" filterUnits="userSpaceOnUse" color-interpolation-filters="sRGB">
<feFlood flood-opacity="0" result="BackgroundImageFix"/>
<feColorMatrix in="SourceAlpha" type="matrix" values="0 0 0 0 0 0 0 0 0 0 0 0 0 0 0 0 0 0 127 0"/>
<feOffset dy="5"/>
<feGaussianBlur stdDeviation="12.5"/>
<feColorMatrix type="matrix" values="0 0 0 0 0 0 0 0 0 0 0 0 0 0 0 0 0 0 0.25 0"/>
<feBlend mode="normal" in2="BackgroundImageFix" result="effect1_dropShadow"/>
<feBlend mode="normal" in="SourceGraphic" in2="effect1_dropShadow" result="shape"/>
</filter>
<filter id="filter1_d" x="-82.3931" y="-38.2729" width="280.893" height="174.417" filterUnits="userSpaceOnUse" color-interpolation-filters="sRGB">
<feFlood flood-opacity="0" result="BackgroundImageFix"/>
<feColorMatrix in="SourceAlpha" type="matrix" values="0 0 0 0 0 0 0 0 0 0 0 0 0 0 0 0 0 0 127 0"/>
<feOffset dy="5"/>
<feGaussianBlur stdDeviation="12.5"/>
<feColorMatrix type="matrix" values="0 0 0 0 0 0 0 0 0 0 0 0 0 0 0 0 0 0 0.25 0"/>
<feBlend mode="normal" in2="BackgroundImageFix" result="effect1_dropShadow"/>
<feBlend mode="normal" in="SourceGraphic" in2="effect1_dropShadow" result="shape"/>
</filter>
<filter id="filter2_d" x="-0.724365" y="-43.6782" width="507.69" height="206.449" filterUnits="userSpaceOnUse" color-interpolation-filters="sRGB">
<feFlood flood-opacity="0" result="BackgroundImageFix"/>
<feColorMatrix in="SourceAlpha" type="matrix" values="0 0 0 0 0 0 0 0 0 0 0 0 0 0 0 0 0 0 127 0"/>
<feOffset dy="5"/>
<feGaussianBlur stdDeviation="12.5"/>
<feColorMatrix type="matrix" values="0 0 0 0 0 0 0 0 0 0 0 0 0 0 0 0 0 0 0.25 0"/>
<feBlend mode="normal" in2="BackgroundImageFix" result="effect1_dropShadow"/>
<feBlend mode="normal" in="SourceGraphic" in2="effect1_dropShadow" result="shape"/>
</filter>
<filter id="filter3_d" x="-93.2339" y="4.27204" width="348.234" height="197.236" filterUnits="userSpaceOnUse" color-interpolation-filters="sRGB">
<feFlood flood-opacity="0" result="BackgroundImageFix"/>
<feColorMatrix in="SourceAlpha" type="matrix" values="0 0 0 0 0 0 0 0 0 0 0 0 0 0 0 0 0 0 127 0"/>
<feOffset dy="5"/>
<feGaussianBlur stdDeviation="12.5"/>
<feColorMatrix type="matrix" values="0 0 0 0 0 0 0 0 0 0 0 0 0 0 0 0 0 0 0.25 0"/>
<feBlend mode="normal" in2="BackgroundImageFix" result="effect1_dropShadow"/>
<feBlend mode="normal" in="SourceGraphic" in2="effect1_dropShadow" result="shape"/>
</filter>
<filter id="filter4_d" x="0.722412" y="-37.6719" width="534.788" height="241.096" filterUnits="userSpaceOnUse" color-interpolation-filters="sRGB">
<feFlood flood-opacity="0" result="BackgroundImageFix"/>
<feColorMatrix in="SourceAlpha" type="matrix" values="0 0 0 0 0 0 0 0 0 0 0 0 0 0 0 0 0 0 127 0"/>
<feOffset dy="5"/>
<feGaussianBlur stdDeviation="12.5"/>
<feColorMatrix type="matrix" values="0 0 0 0 0 0 0 0 0 0 0 0 0 0 0 0 0 0 0.25 0"/>
<feBlend mode="normal" in2="BackgroundImageFix" result="effect1_dropShadow"/>
<feBlend mode="normal" in="SourceGraphic" in2="effect1_dropShadow" result="shape"/>
</filter>
<linearGradient id="paint0_linear" x1="26.5" y1="110" x2="454.5" y2="20" gradientUnits="userSpaceOnUse">
<stop stop-color="#2079FF"/>
<stop offset="1" stop-color="#4D91F8"/>
</linearGradient>
<linearGradient id="paint1_linear" x1="270.258" y1="12.5635" x2="98.1481" y2="23.1339" gradientUnits="userSpaceOnUse">
<stop stop-color="#8A3730"/>
<stop offset="1" stop-color="#CA6A52"/>
</linearGradient>
<linearGradient id="paint2_linear" x1="79.5" y1="37" x2="11.3855" y2="-22.882" gradientUnits="userSpaceOnUse">
<stop stop-color="#8A3730"/>
<stop offset="1" stop-color="#CA6A52"/>
</linearGradient>
<linearGradient id="paint3_linear" x1="269" y1="95.5" x2="218.534" y2="2.45598" gradientUnits="userSpaceOnUse">
<stop stop-color="#8A3730"/>
<stop offset="1" stop-color="#CA6A52"/>
</linearGradient>
<linearGradient id="paint4_linear" x1="16" y1="122" x2="195.032" y2="112.316" gradientUnits="userSpaceOnUse">
<stop stop-color="#8A3730"/>
<stop offset="1" stop-color="#CA6A52"/>
</linearGradient>
<linearGradient id="paint5_linear" x1="470" y1="64" x2="52.1646" y2="91.6451" gradientUnits="userSpaceOnUse">
<stop stop-color="#8A3730"/>
<stop offset="1" stop-color="#CA6A52"/>
</linearGradient>
</defs>
</svg>
