<svg width="100" height="100" viewBox="0 0 100 100" fill="none" xmlns="http://www.w3.org/2000/svg">
<path fill-rule="evenodd" clip-rule="evenodd" d="M45.0591 61.2308H48.1493H48.1589H59.231C61.2702 61.2308 62.9233 59.5777 62.9233 57.5385V56.6223V56.6095V42.7692C62.9233 41.1504 61.8814 39.7748 60.4316 39.2765L59.2783 40.9237C60.276 40.9488 61.0771 41.7655 61.0771 42.7692V54.6436L58.3482 52.3677L58.3471 52.3668C57.8158 51.925 57.1385 51.6978 56.4482 51.7298C55.758 51.7618 55.1046 52.0508 54.6165 52.5399L53.2369 53.9195L51.4367 52.1227L50.3616 53.658L51.9315 55.2249L47.7717 59.3846H46.3518L45.0591 61.2308ZM49.2838 52.5822L46.887 50.1899L46.8864 50.1893C46.72 50.023 46.4963 49.9264 46.2611 49.9195C46.0261 49.9125 45.7974 49.9955 45.6214 50.1514L45.621 50.1518L38.9233 56.1068V57.5385C38.9233 58.5581 39.7499 59.3846 40.7695 59.3846H44.5206L43.2279 61.2308H40.7695C38.7303 61.2308 37.0771 59.5777 37.0771 57.5385V55.6969V55.6884V42.7692C37.0771 40.73 38.7303 39.0769 40.7695 39.0769H58.7402L57.4475 40.9231H40.7695C39.7499 40.9231 38.9233 41.7496 38.9233 42.7692V53.6364L44.3948 48.7717L44.3953 48.7713C44.9232 48.3026 45.6102 48.0532 46.3158 48.0741C47.0215 48.095 47.6925 48.3846 48.1917 48.8838L50.3588 51.0468L49.2838 52.5822ZM54.1369 48.2664C54.2924 48.2935 54.4525 48.3077 54.6158 48.3077C56.1452 48.3077 57.385 47.0679 57.385 45.5384C57.385 45.0347 57.2505 44.5623 57.0154 44.1554L54.1369 48.2664ZM55.9249 43.0976C55.5351 42.8881 55.0893 42.7692 54.6158 42.7692C53.0864 42.7692 51.8466 44.009 51.8466 45.5384C51.8466 46.3589 52.2033 47.096 52.7702 47.603L53.8524 46.0575C53.7516 45.9096 53.6927 45.7309 53.6927 45.5384C53.6927 45.0286 54.106 44.6154 54.6158 44.6154C54.694 44.6154 54.77 44.6251 54.8425 44.6434L55.9249 43.0976ZM57.1668 53.7863L61.0771 57.0475V57.5385C61.0771 58.5581 60.2506 59.3846 59.231 59.3846H50.3826L55.9226 53.8447L55.9232 53.844C56.0859 53.681 56.3037 53.5847 56.5338 53.574C56.7636 53.5633 56.9891 53.6388 57.1661 53.7857L57.1668 53.7863Z" fill="#EEEEEE"/>
<rect x="40" y="63.2129" width="32.9973" height="1.50176" rx="0.75088" transform="rotate(-55 40 63.2129)" fill="#EEEEEE"/>
</svg>
