<svg width="20" height="20" viewBox="0 0 20 20" fill="none" xmlns="http://www.w3.org/2000/svg">
<path d="M8.54199 10.8334C8.54199 11.4084 8.07533 11.8751 7.50033 11.8751C6.92533 11.8751 6.45866 11.4084 6.45866 10.8334C6.45866 10.2584 6.92533 9.79175 7.50033 9.79175C8.07533 9.79175 8.54199 10.2584 8.54199 10.8334ZM12.5003 9.79175C11.9253 9.79175 11.4587 10.2584 11.4587 10.8334C11.4587 11.4084 11.9253 11.8751 12.5003 11.8751C13.0753 11.8751 13.542 11.4084 13.542 10.8334C13.542 10.2584 13.0753 9.79175 12.5003 9.79175ZM18.3337 10.0001C18.3337 14.6001 14.6003 18.3334 10.0003 18.3334C5.40033 18.3334 1.66699 14.6001 1.66699 10.0001C1.66699 5.40008 5.40033 1.66675 10.0003 1.66675C14.6003 1.66675 18.3337 5.40008 18.3337 10.0001ZM8.88366 3.43341C10.0503 5.36675 12.167 6.66675 14.5837 6.66675C14.967 6.66675 15.342 6.62508 15.7003 6.56675C14.5337 4.63341 12.417 3.33341 10.0003 3.33341C9.61699 3.33341 9.24199 3.37508 8.88366 3.43341ZM3.68366 7.89175C5.10866 7.08342 6.20866 5.76675 6.73366 4.19175C5.30866 5.00008 4.20866 6.31675 3.68366 7.89175ZM16.667 10.0001C16.667 9.35008 16.567 8.72508 16.392 8.13342C15.8087 8.25842 15.2087 8.33342 14.5837 8.33342C11.9753 8.33342 9.65033 7.13341 8.11699 5.25841C7.24199 7.39175 5.50033 9.06675 3.33366 9.88342C3.34199 9.91675 3.33366 9.95842 3.33366 10.0001C3.33366 13.6751 6.32533 16.6667 10.0003 16.6667C13.6753 16.6667 16.667 13.6751 16.667 10.0001Z" fill="#828282"/>
</svg>
