<svg width="16" height="16" viewBox="0 0 16 16" fill="none" xmlns="http://www.w3.org/2000/svg">
<g clip-path="url(#clip0)">
<path d="M15.9446 8.00011C15.9446 3.61251 12.3877 0.0556641 8.00011 0.0556641C3.61251 0.0556641 0.0556641 3.61251 0.0556641 8.00011C0.0556641 11.9653 2.96082 15.2521 6.75879 15.848V10.2965H4.74165V8.00011H6.75879V6.24985C6.75879 4.25877 7.94487 3.15896 9.75952 3.15896C10.6284 3.15896 11.5379 3.31413 11.5379 3.31413V5.26921H10.5361C9.54928 5.26921 9.24143 5.88164 9.24143 6.51052V8.00011H11.4448L11.0925 10.2965H9.24143V15.848C13.0394 15.2521 15.9446 11.9653 15.9446 8.00011Z" fill="#CA6A52"/>
</g>
<defs>
<clipPath id="clip0">
<rect width="15.8889" height="15.8889" fill="white" transform="translate(0.0556641 0.0556641)"/>
</clipPath>
</defs>
</svg>
