<svg width="15" height="16" viewBox="0 0 15 16" fill="none" xmlns="http://www.w3.org/2000/svg">
<g clip-path="url(#clip0)">
<path d="M7.55621 2.0784C9.4859 2.0784 9.71441 2.08686 10.4733 2.12071C11.1786 2.15175 11.5595 2.27024 11.8134 2.36898C12.1491 2.49875 12.3917 2.65674 12.6428 2.90782C12.8967 3.16173 13.0519 3.40153 13.1816 3.73725C13.2804 3.99116 13.3989 4.37484 13.4299 5.07731C13.4638 5.83903 13.4722 6.06755 13.4722 7.99441C13.4722 9.9241 13.4638 10.1526 13.4299 10.9115C13.3989 11.6168 13.2804 11.9977 13.1816 12.2516C13.0519 12.5873 12.8939 12.8299 12.6428 13.081C12.3889 13.3349 12.1491 13.4901 11.8134 13.6198C11.5595 13.7186 11.1758 13.8371 10.4733 13.8681C9.71159 13.902 9.48307 13.9104 7.55621 13.9104C5.62652 13.9104 5.398 13.902 4.63911 13.8681C3.93381 13.8371 3.55295 13.7186 3.29905 13.6198C2.96333 13.4901 2.7207 13.3321 2.46962 13.081C2.21571 12.8271 2.06055 12.5873 1.93077 12.2516C1.83203 11.9977 1.71354 11.614 1.68251 10.9115C1.64865 10.1498 1.64019 9.92128 1.64019 7.99441C1.64019 6.06472 1.64865 5.83621 1.68251 5.07731C1.71354 4.37202 1.83203 3.99116 1.93077 3.73725C2.06055 3.40153 2.21853 3.15891 2.46962 2.90782C2.72352 2.65392 2.96333 2.49875 3.29905 2.36898C3.55295 2.27024 3.93663 2.15175 4.63911 2.12071C5.398 2.08686 5.62652 2.0784 7.55621 2.0784ZM7.55621 0.777832C5.59549 0.777832 5.35004 0.786296 4.57986 0.82015C3.8125 0.854004 3.28494 0.978136 2.82791 1.15587C2.35113 1.34207 1.9477 1.58751 1.54709 1.99094C1.14366 2.39155 0.898221 2.79498 0.712023 3.26893C0.534288 3.72879 0.410156 4.25353 0.376302 5.02089C0.342448 5.79389 0.333984 6.03933 0.333984 8.00005C0.333984 9.96078 0.342448 10.2062 0.376302 10.9764C0.410156 11.7438 0.534288 12.2713 0.712023 12.7284C0.898221 13.2051 1.14366 13.6086 1.54709 14.0092C1.9477 14.4098 2.35113 14.658 2.82509 14.8414C3.28494 15.0192 3.80968 15.1433 4.57704 15.1771C5.34722 15.211 5.59267 15.2195 7.55339 15.2195C9.51411 15.2195 9.75955 15.211 10.5297 15.1771C11.2971 15.1433 11.8247 15.0192 12.2817 14.8414C12.7556 14.658 13.1591 14.4098 13.5597 14.0092C13.9603 13.6086 14.2086 13.2051 14.3919 12.7312C14.5697 12.2713 14.6938 11.7466 14.7276 10.9792C14.7615 10.209 14.77 9.9636 14.77 8.00288C14.77 6.04216 14.7615 5.79671 14.7276 5.02653C14.6938 4.25917 14.5697 3.73161 14.3919 3.27458C14.2142 2.79498 13.9688 2.39155 13.5653 1.99094C13.1647 1.59033 12.7613 1.34207 12.2873 1.15869C11.8275 0.980957 11.3027 0.856825 10.5354 0.822971C9.76237 0.786296 9.51693 0.777832 7.55621 0.777832Z" fill="#CA6A52"/>
<path d="M7.55653 4.29028C5.50836 4.29028 3.84668 5.95196 3.84668 8.00014C3.84668 10.0483 5.50836 11.71 7.55653 11.71C9.60471 11.71 11.2664 10.0483 11.2664 8.00014C11.2664 5.95196 9.60471 4.29028 7.55653 4.29028ZM7.55653 10.4066C6.22776 10.4066 5.15007 9.32891 5.15007 8.00014C5.15007 6.67136 6.22776 5.59367 7.55653 5.59367C8.88531 5.59367 9.963 6.67136 9.963 8.00014C9.963 9.32891 8.88531 10.4066 7.55653 10.4066Z" fill="#CA6A52"/>
<path d="M12.2791 4.14345C12.2791 4.62305 11.8898 5.00955 11.413 5.00955C10.9334 5.00955 10.5469 4.62023 10.5469 4.14345C10.5469 3.66385 10.9362 3.27734 11.413 3.27734C11.8898 3.27734 12.2791 3.66667 12.2791 4.14345Z" fill="#CA6A52"/>
</g>
<defs>
<clipPath id="clip0">
<rect width="14.4444" height="14.4444" fill="white" transform="translate(0.333984 0.777832)"/>
</clipPath>
</defs>
</svg>
