<svg width="31" height="31" viewBox="0 0 31 31" fill="none" xmlns="http://www.w3.org/2000/svg">
<path d="M0 3.60465C0 1.61386 1.61386 0 3.60465 0H10.814C12.8047 0 14.4186 1.61386 14.4186 3.60465V14.4186H3.60465C1.61386 14.4186 0 12.8047 0 10.814V3.60465Z" fill="#343434"/>
<path d="M0 20.1857C0 18.1949 1.61386 16.5811 3.60465 16.5811H14.4186V27.395C14.4186 29.3858 12.8047 30.9997 10.814 30.9997H3.60465C1.61386 30.9997 0 29.3858 0 27.395V20.1857Z" fill="#343434"/>
<path d="M16.5815 3.60465C16.5815 1.61386 18.1954 0 20.1862 0H27.3955C29.3863 0 31.0001 1.61386 31.0001 3.60465V10.814C31.0001 12.8047 29.3863 14.4186 27.3955 14.4186H16.5815V3.60465Z" fill="#343434"/>
<path d="M16.5815 16.5811H27.3955C29.3863 16.5811 31.0001 18.1949 31.0001 20.1857V27.395C31.0001 29.3858 29.3863 30.9997 27.3955 30.9997H20.1862C18.1954 30.9997 16.5815 29.3858 16.5815 27.395V16.5811Z" fill="#343434"/>
</svg>
