<svg width="17" height="16" viewBox="0 0 17 16" fill="none" xmlns="http://www.w3.org/2000/svg">
<g clip-path="url(#clip0)">
<path d="M5.33247 14.4551C11.3268 14.4551 14.6064 9.48767 14.6064 5.18122C14.6064 5.04157 14.6033 4.89882 14.5971 4.75917C15.235 4.2978 15.7856 3.72632 16.2229 3.0716C15.6287 3.33595 14.9979 3.5086 14.3519 3.58364C15.0321 3.17594 15.5413 2.53546 15.7853 1.78094C15.1454 2.16015 14.4457 2.42765 13.716 2.57197C13.2244 2.04959 12.5744 1.70371 11.8665 1.58781C11.1585 1.47191 10.4322 1.59244 9.79962 1.93078C9.16708 2.26911 8.6636 2.80639 8.36704 3.45956C8.07048 4.11273 7.99735 4.84541 8.15895 5.54431C6.86332 5.47929 5.59581 5.14272 4.4386 4.55642C3.28139 3.97011 2.26031 3.14716 1.44155 2.14092C1.02542 2.85839 0.898077 3.70738 1.08542 4.51536C1.27276 5.32335 1.76072 6.02968 2.45012 6.49081C1.93256 6.47438 1.42633 6.33503 0.973264 6.08428V6.12462C0.9728 6.87755 1.2331 7.60741 1.7099 8.19012C2.18671 8.77283 2.8506 9.17244 3.58872 9.32102C3.10928 9.4522 2.60608 9.47131 2.11807 9.37688C2.32635 10.0244 2.7316 10.5907 3.27725 10.9969C3.8229 11.403 4.48173 11.6286 5.16179 11.6423C4.00725 12.5492 2.58105 13.0411 1.11291 13.0388C0.852549 13.0384 0.592443 13.0224 0.333984 12.991C1.82546 13.9478 3.56044 14.456 5.33247 14.4551Z" fill="#CA6A52"/>
</g>
<defs>
<clipPath id="clip0">
<rect width="15.8889" height="15.8889" fill="white" transform="translate(0.333984 0.0556641)"/>
</clipPath>
</defs>
</svg>
